<svg xmlns="http://www.w3.org/2000/svg" viewBox="0 0 400 200">
  <!-- Main container -->
  <g transform="translate(100, 10)">
    <!-- Main orchestrator node -->
    <circle cx="100" cy="70" r="12" fill="#3B82F6"/>

    <!-- Worker nodes -->
    <circle cx="60" cy="110" r="8" fill="#2563EB"/>
    <circle cx="100" cy="110" r="8" fill="#2563EB"/>
    <circle cx="140" cy="110" r="8" fill="#2563EB"/>

    <!-- Task nodes -->
    <circle cx="40" cy="140" r="4" fill="#60A5FA"/>
    <circle cx="80" cy="140" r="4" fill="#60A5FA"/>
    <circle cx="120" cy="140" r="4" fill="#60A5FA"/>
    <circle cx="160" cy="140" r="4" fill="#60A5FA"/>

    <!-- Connection lines from orchestrator to workers -->
    <line x1="100" y1="82" x2="60" y2="102" stroke="#3B82F6" stroke-width="2"/>
    <line x1="100" y1="82" x2="100" y2="102" stroke="#3B82F6" stroke-width="2"/>
    <line x1="100" y1="82" x2="140" y2="102" stroke="#3B82F6" stroke-width="2"/>

    <!-- Connection lines from workers to job -->
    <line x1="60" y1="118" x2="40" y2="136" stroke="#3B82F6" stroke-width="1" opacity="0.6"/>
    <line x1="60" y1="118" x2="80" y2="136" stroke="#3B82F6" stroke-width="1" opacity="0.6"/>
    <line x1="100" y1="118" x2="80" y2="136" stroke="#3B82F6" stroke-width="1" opacity="0.6"/>
    <line x1="100" y1="118" x2="120" y2="136" stroke="#3B82F6" stroke-width="1" opacity="0.6"/>
    <line x1="140" y1="118" x2="120" y2="136" stroke="#3B82F6" stroke-width="1" opacity="0.6"/>
    <line x1="140" y1="118" x2="160" y2="136" stroke="#3B82F6" stroke-width="1" opacity="0.6"/>

    <!-- Control ring around orchestrator -->
    <circle cx="100" cy="70" r="16"
            fill="none"
            stroke="#3B82F6"
            stroke-width="1.5"
            stroke-dasharray="4,2"/>

    <!-- Subtle pulse animation for orchestrator -->
    <circle cx="100" cy="70" r="20" fill="#000" opacity="0.1">
      <animate attributeName="r"
               values="20;22;20"
               dur="2s"
               repeatCount="indefinite"/>
      <animate attributeName="opacity"
               values="0.1;0.05;0.1"
               dur="2s"
               repeatCount="indefinite"/>
    </circle>
  </g>
</svg>
